<?xml version="1.0" encoding="UTF-8" standalone="no"?>
<!DOCTYPE svg PUBLIC "-//W3C//DTD SVG 1.1//EN"
 "http://www.w3.org/Graphics/SVG/1.1/DTD/svg11.dtd">
<!-- Generated by graphviz version 10.0.1 (0)
 -->
<!-- Pages: 1 -->
<svg width="1361pt" height="44pt"
 viewBox="0.00 0.00 1361.37 44.00" xmlns="http://www.w3.org/2000/svg" xmlns:xlink="http://www.w3.org/1999/xlink">
<g id="graph0" class="graph" transform="scale(1 1) rotate(0) translate(4 40)">
<polygon fill="white" stroke="none" points="-4,4 -4,-40 1357.37,-40 1357.37,4 -4,4"/>
<!-- dosetup -->
<g id="node1" class="node">
<title>dosetup</title>
<ellipse fill="none" stroke="black" cx="51.21" cy="-18" rx="51.21" ry="18"/>
<text text-anchor="middle" x="51.21" y="-13.32" font-family="Times,serif" font-size="14.00">dosetup</text>
</g>
<!-- dofetch -->
<g id="node2" class="node">
<title>dofetch</title>
<ellipse fill="none" stroke="black" cx="186.99" cy="-18" rx="48.58" ry="18"/>
<text text-anchor="middle" x="186.99" y="-13.32" font-family="Times,serif" font-size="14.00">dofetch</text>
</g>
<!-- dosetup&#45;&gt;dofetch -->
<g id="edge1" class="edge">
<title>dosetup&#45;&gt;dofetch</title>
<path fill="none" stroke="black" d="M102.79,-18C110.54,-18 118.61,-18 126.54,-18"/>
<polygon fill="black" stroke="black" points="126.48,-21.5 136.48,-18 126.48,-14.5 126.48,-21.5"/>
</g>
<!-- do12345 -->
<g id="node3" class="node">
<title>do12345</title>
<polygon fill="none" stroke="black" stroke-dasharray="5,2" points="349.82,-36 271.57,-36 271.57,0 349.82,0 349.82,-36"/>
<text text-anchor="middle" x="310.7" y="-13.32" font-family="Times,serif" font-size="14.00">do12345</text>
</g>
<!-- dofetch&#45;&gt;do12345 -->
<g id="edge2" class="edge">
<title>dofetch&#45;&gt;do12345</title>
<path fill="none" stroke="black" d="M235.74,-18C243.62,-18 251.8,-18 259.73,-18"/>
<polygon fill="black" stroke="black" points="259.58,-21.5 269.58,-18 259.58,-14.5 259.58,-21.5"/>
</g>
<!-- dopatch -->
<g id="node4" class="node">
<title>dopatch</title>
<polygon fill="none" stroke="black" stroke-dasharray="5,2" points="458.82,-36 385.82,-36 385.82,0 458.82,0 458.82,-36"/>
<text text-anchor="middle" x="422.32" y="-13.32" font-family="Times,serif" font-size="14.00">dopatch</text>
</g>
<!-- do12345&#45;&gt;dopatch -->
<g id="edge3" class="edge">
<title>do12345&#45;&gt;dopatch</title>
<path fill="none" stroke="black" d="M350.04,-18C357.75,-18 365.95,-18 373.93,-18"/>
<polygon fill="black" stroke="black" points="373.88,-21.5 383.88,-18 373.88,-14.5 373.88,-21.5"/>
</g>
<!-- prepare -->
<g id="node5" class="node">
<title>prepare</title>
<polygon fill="none" stroke="black" stroke-dasharray="5,2" points="567.07,-36 494.82,-36 494.82,0 567.07,0 567.07,-36"/>
<text text-anchor="middle" x="530.95" y="-13.32" font-family="Times,serif" font-size="14.00">prepare</text>
</g>
<!-- dopatch&#45;&gt;prepare -->
<g id="edge4" class="edge">
<title>dopatch&#45;&gt;prepare</title>
<path fill="none" stroke="black" d="M459.12,-18C466.76,-18 474.95,-18 482.94,-18"/>
<polygon fill="black" stroke="black" points="482.91,-21.5 492.91,-18 482.91,-14.5 482.91,-21.5"/>
</g>
<!-- install -->
<g id="node6" class="node">
<title>install</title>
<ellipse fill="none" stroke="black" cx="645.34" cy="-18" rx="42.26" ry="18"/>
<text text-anchor="middle" x="645.34" y="-13.32" font-family="Times,serif" font-size="14.00">install</text>
</g>
<!-- prepare&#45;&gt;install -->
<g id="edge5" class="edge">
<title>prepare&#45;&gt;install</title>
<path fill="none" stroke="black" d="M567.51,-18C575.11,-18 583.3,-18 591.4,-18"/>
<polygon fill="black" stroke="black" points="591.21,-21.5 601.21,-18 591.21,-14.5 591.21,-21.5"/>
</g>
<!-- doextra -->
<g id="node7" class="node">
<title>doextra</title>
<polygon fill="none" stroke="black" stroke-dasharray="5,2" points="794.35,-36 723.6,-36 723.6,0 794.35,0 794.35,-36"/>
<text text-anchor="middle" x="758.97" y="-13.32" font-family="Times,serif" font-size="14.00">doextra</text>
</g>
<!-- install&#45;&gt;doextra -->
<g id="edge6" class="edge">
<title>install&#45;&gt;doextra</title>
<path fill="none" stroke="black" d="M687.91,-18C695.74,-18 703.97,-18 711.93,-18"/>
<polygon fill="black" stroke="black" points="711.8,-21.5 721.8,-18 711.8,-14.5 711.8,-21.5"/>
</g>
<!-- tweak_pc_files -->
<g id="node8" class="node">
<title>tweak_pc_files</title>
<ellipse fill="none" stroke="black" cx="913.12" cy="-18" rx="82.77" ry="18"/>
<text text-anchor="middle" x="913.12" y="-13.32" font-family="Times,serif" font-size="14.00">tweak_pc_files</text>
</g>
<!-- doextra&#45;&gt;tweak_pc_files -->
<g id="edge7" class="edge">
<title>doextra&#45;&gt;tweak_pc_files</title>
<path fill="none" stroke="black" d="M794.5,-18C801.94,-18 810.14,-18 818.65,-18"/>
<polygon fill="black" stroke="black" points="818.46,-21.5 828.46,-18 818.46,-14.5 818.46,-21.5"/>
</g>
<!-- dotweak -->
<g id="node9" class="node">
<title>dotweak</title>
<polygon fill="none" stroke="black" stroke-dasharray="5,2" points="1107.9,-36 1031.9,-36 1031.9,0 1107.9,0 1107.9,-36"/>
<text text-anchor="middle" x="1069.9" y="-13.32" font-family="Times,serif" font-size="14.00">dotweak</text>
</g>
<!-- tweak_pc_files&#45;&gt;dotweak -->
<g id="edge8" class="edge">
<title>tweak_pc_files&#45;&gt;dotweak</title>
<path fill="none" stroke="black" d="M996.04,-18C1004.33,-18 1012.54,-18 1020.3,-18"/>
<polygon fill="black" stroke="black" points="1020.17,-21.5 1030.17,-18 1020.17,-14.5 1020.17,-21.5"/>
</g>
<!-- docheck -->
<g id="node10" class="node">
<title>docheck</title>
<ellipse fill="none" stroke="black" cx="1195.63" cy="-18" rx="51.73" ry="18"/>
<text text-anchor="middle" x="1195.63" y="-13.32" font-family="Times,serif" font-size="14.00">docheck</text>
</g>
<!-- dotweak&#45;&gt;docheck -->
<g id="edge9" class="edge">
<title>dotweak&#45;&gt;docheck</title>
<path fill="none" stroke="black" d="M1108.36,-18C1115.9,-18 1124.02,-18 1132.15,-18"/>
<polygon fill="black" stroke="black" points="1132.09,-21.5 1142.09,-18 1132.09,-14.5 1132.09,-21.5"/>
</g>
<!-- caveats -->
<g id="node11" class="node">
<title>caveats</title>
<polygon fill="none" stroke="black" stroke-dasharray="5,2" points="1353.37,-36 1283.37,-36 1283.37,0 1353.37,0 1353.37,-36"/>
<text text-anchor="middle" x="1318.37" y="-13.32" font-family="Times,serif" font-size="14.00">caveats</text>
</g>
<!-- docheck&#45;&gt;caveats -->
<g id="edge10" class="edge">
<title>docheck&#45;&gt;caveats</title>
<path fill="none" stroke="black" d="M1247.83,-18C1255.69,-18 1263.75,-18 1271.48,-18"/>
<polygon fill="black" stroke="black" points="1271.37,-21.5 1281.37,-18 1271.37,-14.5 1271.37,-21.5"/>
</g>
</g>
</svg>
