<?xml version="1.0" encoding="UTF-8" standalone="no"?>
<!DOCTYPE svg PUBLIC "-//W3C//DTD SVG 1.1//EN"
 "http://www.w3.org/Graphics/SVG/1.1/DTD/svg11.dtd">
<!-- Generated by graphviz version 11.0.0 (0)
 -->
<!-- Pages: 1 -->
<svg width="999pt" height="44pt"
 viewBox="0.00 0.00 999.23 44.00" xmlns="http://www.w3.org/2000/svg" xmlns:xlink="http://www.w3.org/1999/xlink">
<g id="graph0" class="graph" transform="scale(1 1) rotate(0) translate(4 40)">
<polygon fill="white" stroke="none" points="-4,4 -4,-40 995.23,-40 995.23,4 -4,4"/>
<!-- onstart -->
<g id="node1" class="node">
<title>onstart</title>
<ellipse fill="green" stroke="black" cx="36" cy="-18" rx="36" ry="18"/>
<text text-anchor="middle" x="36" y="-12.95" font-family="Times,serif" font-size="14.00">onstart</text>
</g>
<!-- dofetch -->
<g id="node2" class="node">
<title>dofetch</title>
<ellipse fill="none" stroke="black" cx="146.55" cy="-18" rx="38.56" ry="18"/>
<text text-anchor="middle" x="146.55" y="-12.95" font-family="Times,serif" font-size="14.00">dofetch</text>
</g>
<!-- onstart&#45;&gt;dofetch -->
<g id="edge1" class="edge">
<title>onstart&#45;&gt;dofetch</title>
<path fill="none" stroke="black" d="M72.24,-18C79.98,-18 88.32,-18 96.49,-18"/>
<polygon fill="black" stroke="black" points="96.35,-21.5 106.35,-18 96.35,-14.5 96.35,-21.5"/>
</g>
<!-- onready -->
<g id="node3" class="node">
<title>onready</title>
<ellipse fill="green" stroke="black" cx="261.71" cy="-18" rx="40.6" ry="18"/>
<text text-anchor="middle" x="261.71" y="-12.95" font-family="Times,serif" font-size="14.00">onready</text>
</g>
<!-- dofetch&#45;&gt;onready -->
<g id="edge2" class="edge">
<title>dofetch&#45;&gt;onready</title>
<path fill="none" stroke="black" d="M185.55,-18C193.14,-18 201.23,-18 209.19,-18"/>
<polygon fill="black" stroke="black" points="209.17,-21.5 219.17,-18 209.17,-14.5 209.17,-21.5"/>
</g>
<!-- do12345 -->
<g id="node4" class="node">
<title>do12345</title>
<polygon fill="none" stroke="black" stroke-dasharray="5,2" points="401.56,-36 338.31,-36 338.31,0 401.56,0 401.56,-36"/>
<text text-anchor="middle" x="369.94" y="-12.95" font-family="Times,serif" font-size="14.00">do12345</text>
</g>
<!-- onready&#45;&gt;do12345 -->
<g id="edge3" class="edge">
<title>onready&#45;&gt;do12345</title>
<path fill="none" stroke="black" d="M302.57,-18C310.4,-18 318.64,-18 326.55,-18"/>
<polygon fill="black" stroke="black" points="326.31,-21.5 336.31,-18 326.31,-14.5 326.31,-21.5"/>
</g>
<!-- dopatch -->
<g id="node5" class="node">
<title>dopatch</title>
<polygon fill="none" stroke="black" stroke-dasharray="5,2" points="496.31,-36 437.56,-36 437.56,0 496.31,0 496.31,-36"/>
<text text-anchor="middle" x="466.94" y="-12.95" font-family="Times,serif" font-size="14.00">dopatch</text>
</g>
<!-- do12345&#45;&gt;dopatch -->
<g id="edge4" class="edge">
<title>do12345&#45;&gt;dopatch</title>
<path fill="none" stroke="black" d="M402.05,-18C409.68,-18 417.96,-18 425.95,-18"/>
<polygon fill="black" stroke="black" points="425.82,-21.5 435.82,-18 425.82,-14.5 425.82,-21.5"/>
</g>
<!-- prepare -->
<g id="node6" class="node">
<title>prepare</title>
<polygon fill="none" stroke="black" stroke-dasharray="5,2" points="588.81,-36 532.31,-36 532.31,0 588.81,0 588.81,-36"/>
<text text-anchor="middle" x="560.56" y="-12.95" font-family="Times,serif" font-size="14.00">prepare</text>
</g>
<!-- dopatch&#45;&gt;prepare -->
<g id="edge5" class="edge">
<title>dopatch&#45;&gt;prepare</title>
<path fill="none" stroke="black" d="M496.68,-18C504.22,-18 512.49,-18 520.48,-18"/>
<polygon fill="black" stroke="black" points="520.35,-21.5 530.35,-18 520.35,-14.5 520.35,-21.5"/>
</g>
<!-- install -->
<g id="node7" class="node">
<title>install</title>
<ellipse fill="none" stroke="black" cx="658.25" cy="-18" rx="33.44" ry="18"/>
<text text-anchor="middle" x="658.25" y="-12.95" font-family="Times,serif" font-size="14.00">install</text>
</g>
<!-- prepare&#45;&gt;install -->
<g id="edge6" class="edge">
<title>prepare&#45;&gt;install</title>
<path fill="none" stroke="black" d="M589.24,-18C596.74,-18 605.06,-18 613.22,-18"/>
<polygon fill="black" stroke="black" points="613.05,-21.5 623.05,-18 613.05,-14.5 613.05,-21.5"/>
</g>
<!-- dotweak -->
<g id="node8" class="node">
<title>dotweak</title>
<polygon fill="none" stroke="black" stroke-dasharray="5,2" points="789.44,-36 727.69,-36 727.69,0 789.44,0 789.44,-36"/>
<text text-anchor="middle" x="758.56" y="-12.95" font-family="Times,serif" font-size="14.00">dotweak</text>
</g>
<!-- install&#45;&gt;dotweak -->
<g id="edge7" class="edge">
<title>install&#45;&gt;dotweak</title>
<path fill="none" stroke="black" d="M691.99,-18C699.64,-18 707.9,-18 715.89,-18"/>
<polygon fill="black" stroke="black" points="715.78,-21.5 725.78,-18 715.78,-14.5 715.78,-21.5"/>
</g>
<!-- onfinal -->
<g id="node9" class="node">
<title>onfinal</title>
<ellipse fill="green" stroke="black" cx="862.46" cy="-18" rx="37.02" ry="18"/>
<text text-anchor="middle" x="862.46" y="-12.95" font-family="Times,serif" font-size="14.00">onfinal</text>
</g>
<!-- dotweak&#45;&gt;onfinal -->
<g id="edge8" class="edge">
<title>dotweak&#45;&gt;onfinal</title>
<path fill="none" stroke="black" d="M789.86,-18C797.36,-18 805.57,-18 813.68,-18"/>
<polygon fill="black" stroke="black" points="813.47,-21.5 823.47,-18 813.47,-14.5 813.47,-21.5"/>
</g>
<!-- caveats -->
<g id="node10" class="node">
<title>caveats</title>
<polygon fill="none" stroke="black" stroke-dasharray="5,2" points="991.23,-36 935.48,-36 935.48,0 991.23,0 991.23,-36"/>
<text text-anchor="middle" x="963.36" y="-12.95" font-family="Times,serif" font-size="14.00">caveats</text>
</g>
<!-- onfinal&#45;&gt;caveats -->
<g id="edge9" class="edge">
<title>onfinal&#45;&gt;caveats</title>
<path fill="none" stroke="black" d="M899.72,-18C907.58,-18 915.91,-18 923.84,-18"/>
<polygon fill="black" stroke="black" points="923.57,-21.5 933.57,-18 923.57,-14.5 923.57,-21.5"/>
</g>
</g>
</svg>
