<?xml version="1.0" encoding="UTF-8" standalone="no"?>
<!DOCTYPE svg PUBLIC "-//W3C//DTD SVG 1.1//EN"
 "http://www.w3.org/Graphics/SVG/1.1/DTD/svg11.dtd">
<!-- Generated by graphviz version 11.0.0 (0)
 -->
<!-- Pages: 1 -->
<svg width="898pt" height="44pt"
 viewBox="0.00 0.00 898.40 44.00" xmlns="http://www.w3.org/2000/svg" xmlns:xlink="http://www.w3.org/1999/xlink">
<g id="graph0" class="graph" transform="scale(1 1) rotate(0) translate(4 40)">
<polygon fill="white" stroke="none" points="-4,4 -4,-40 894.4,-40 894.4,4 -4,4"/>
<!-- dosetup -->
<g id="node1" class="node">
<title>dosetup</title>
<ellipse fill="none" stroke="black" cx="39.58" cy="-18" rx="39.58" ry="18"/>
<text text-anchor="middle" x="39.58" y="-12.95" font-family="Times,serif" font-size="14.00">dosetup</text>
</g>
<!-- dofetch -->
<g id="node2" class="node">
<title>dofetch</title>
<ellipse fill="none" stroke="black" cx="153.72" cy="-18" rx="38.56" ry="18"/>
<text text-anchor="middle" x="153.72" y="-12.95" font-family="Times,serif" font-size="14.00">dofetch</text>
</g>
<!-- dosetup&#45;&gt;dofetch -->
<g id="edge1" class="edge">
<title>dosetup&#45;&gt;dofetch</title>
<path fill="none" stroke="black" d="M79.48,-18C87.31,-18 95.63,-18 103.75,-18"/>
<polygon fill="black" stroke="black" points="103.5,-21.5 113.5,-18 103.5,-14.5 103.5,-21.5"/>
</g>
<!-- do12345 -->
<g id="node3" class="node">
<title>do12345</title>
<polygon fill="none" stroke="black" stroke-dasharray="5,2" points="291.52,-36 228.27,-36 228.27,0 291.52,0 291.52,-36"/>
<text text-anchor="middle" x="259.9" y="-12.95" font-family="Times,serif" font-size="14.00">do12345</text>
</g>
<!-- dofetch&#45;&gt;do12345 -->
<g id="edge2" class="edge">
<title>dofetch&#45;&gt;do12345</title>
<path fill="none" stroke="black" d="M192.62,-18C200.44,-18 208.72,-18 216.68,-18"/>
<polygon fill="black" stroke="black" points="216.51,-21.5 226.51,-18 216.51,-14.5 216.51,-21.5"/>
</g>
<!-- dopatch -->
<g id="node4" class="node">
<title>dopatch</title>
<polygon fill="none" stroke="black" stroke-dasharray="5,2" points="386.27,-36 327.52,-36 327.52,0 386.27,0 386.27,-36"/>
<text text-anchor="middle" x="356.9" y="-12.95" font-family="Times,serif" font-size="14.00">dopatch</text>
</g>
<!-- do12345&#45;&gt;dopatch -->
<g id="edge3" class="edge">
<title>do12345&#45;&gt;dopatch</title>
<path fill="none" stroke="black" d="M292,-18C299.64,-18 307.92,-18 315.91,-18"/>
<polygon fill="black" stroke="black" points="315.78,-21.5 325.78,-18 315.78,-14.5 315.78,-21.5"/>
</g>
<!-- prepare -->
<g id="node5" class="node">
<title>prepare</title>
<polygon fill="none" stroke="black" stroke-dasharray="5,2" points="478.77,-36 422.27,-36 422.27,0 478.77,0 478.77,-36"/>
<text text-anchor="middle" x="450.52" y="-12.95" font-family="Times,serif" font-size="14.00">prepare</text>
</g>
<!-- dopatch&#45;&gt;prepare -->
<g id="edge4" class="edge">
<title>dopatch&#45;&gt;prepare</title>
<path fill="none" stroke="black" d="M386.64,-18C394.18,-18 402.45,-18 410.44,-18"/>
<polygon fill="black" stroke="black" points="410.31,-21.5 420.31,-18 410.31,-14.5 410.31,-21.5"/>
</g>
<!-- install -->
<g id="node6" class="node">
<title>install</title>
<ellipse fill="none" stroke="black" cx="548.21" cy="-18" rx="33.44" ry="18"/>
<text text-anchor="middle" x="548.21" y="-12.95" font-family="Times,serif" font-size="14.00">install</text>
</g>
<!-- prepare&#45;&gt;install -->
<g id="edge5" class="edge">
<title>prepare&#45;&gt;install</title>
<path fill="none" stroke="black" d="M479.2,-18C486.7,-18 495.02,-18 503.18,-18"/>
<polygon fill="black" stroke="black" points="503.01,-21.5 513.01,-18 503.01,-14.5 503.01,-21.5"/>
</g>
<!-- dotweak -->
<g id="node7" class="node">
<title>dotweak</title>
<polygon fill="none" stroke="black" stroke-dasharray="5,2" points="679.4,-36 617.65,-36 617.65,0 679.4,0 679.4,-36"/>
<text text-anchor="middle" x="648.52" y="-12.95" font-family="Times,serif" font-size="14.00">dotweak</text>
</g>
<!-- install&#45;&gt;dotweak -->
<g id="edge6" class="edge">
<title>install&#45;&gt;dotweak</title>
<path fill="none" stroke="black" d="M581.95,-18C589.6,-18 597.86,-18 605.85,-18"/>
<polygon fill="black" stroke="black" points="605.74,-21.5 615.74,-18 605.74,-14.5 605.74,-21.5"/>
</g>
<!-- docheck -->
<g id="node8" class="node">
<title>docheck</title>
<ellipse fill="none" stroke="black" cx="757.03" cy="-18" rx="41.63" ry="18"/>
<text text-anchor="middle" x="757.03" y="-12.95" font-family="Times,serif" font-size="14.00">docheck</text>
</g>
<!-- dotweak&#45;&gt;docheck -->
<g id="edge7" class="edge">
<title>dotweak&#45;&gt;docheck</title>
<path fill="none" stroke="black" d="M679.76,-18C687.2,-18 695.38,-18 703.54,-18"/>
<polygon fill="black" stroke="black" points="703.46,-21.5 713.46,-18 703.46,-14.5 703.46,-21.5"/>
</g>
<!-- caveats -->
<g id="node9" class="node">
<title>caveats</title>
<polygon fill="none" stroke="black" stroke-dasharray="5,2" points="890.4,-36 834.65,-36 834.65,0 890.4,0 890.4,-36"/>
<text text-anchor="middle" x="862.53" y="-12.95" font-family="Times,serif" font-size="14.00">caveats</text>
</g>
<!-- docheck&#45;&gt;caveats -->
<g id="edge8" class="edge">
<title>docheck&#45;&gt;caveats</title>
<path fill="none" stroke="black" d="M798.93,-18C806.81,-18 815.04,-18 822.85,-18"/>
<polygon fill="black" stroke="black" points="822.76,-21.5 832.76,-18 822.76,-14.5 822.76,-21.5"/>
</g>
</g>
</svg>
