<?xml version="1.0" encoding="UTF-8" standalone="no"?>
<!DOCTYPE svg PUBLIC "-//W3C//DTD SVG 1.1//EN"
 "http://www.w3.org/Graphics/SVG/1.1/DTD/svg11.dtd">
<!-- Generated by graphviz version 10.0.1 (0)
 -->
<!-- Pages: 1 -->
<svg width="1632pt" height="44pt"
 viewBox="0.00 0.00 1631.89 44.00" xmlns="http://www.w3.org/2000/svg" xmlns:xlink="http://www.w3.org/1999/xlink">
<g id="graph0" class="graph" transform="scale(1 1) rotate(0) translate(4 40)">
<polygon fill="white" stroke="none" points="-4,4 -4,-40 1627.89,-40 1627.89,4 -4,4"/>
<!-- onstart -->
<g id="node1" class="node">
<title>onstart</title>
<ellipse fill="green" stroke="black" cx="47.53" cy="-18" rx="47.53" ry="18"/>
<text text-anchor="middle" x="47.53" y="-13.32" font-family="Times,serif" font-size="14.00">onstart</text>
</g>
<!-- dosetup -->
<g id="node2" class="node">
<title>dosetup</title>
<ellipse fill="none" stroke="black" cx="182.26" cy="-18" rx="51.21" ry="18"/>
<text text-anchor="middle" x="182.26" y="-13.32" font-family="Times,serif" font-size="14.00">dosetup</text>
</g>
<!-- onstart&#45;&gt;dosetup -->
<g id="edge1" class="edge">
<title>onstart&#45;&gt;dosetup</title>
<path fill="none" stroke="black" d="M95.32,-18C103.13,-18 111.34,-18 119.46,-18"/>
<polygon fill="black" stroke="black" points="119.31,-21.5 129.31,-18 119.31,-14.5 119.31,-21.5"/>
</g>
<!-- dofetch -->
<g id="node3" class="node">
<title>dofetch</title>
<ellipse fill="none" stroke="black" cx="318.04" cy="-18" rx="48.58" ry="18"/>
<text text-anchor="middle" x="318.04" y="-13.32" font-family="Times,serif" font-size="14.00">dofetch</text>
</g>
<!-- dosetup&#45;&gt;dofetch -->
<g id="edge2" class="edge">
<title>dosetup&#45;&gt;dofetch</title>
<path fill="none" stroke="black" d="M233.84,-18C241.59,-18 249.66,-18 257.59,-18"/>
<polygon fill="black" stroke="black" points="257.53,-21.5 267.53,-18 257.53,-14.5 257.53,-21.5"/>
</g>
<!-- onready -->
<g id="node4" class="node">
<title>onready</title>
<ellipse fill="green" stroke="black" cx="454.36" cy="-18" rx="51.73" ry="18"/>
<text text-anchor="middle" x="454.36" y="-13.32" font-family="Times,serif" font-size="14.00">onready</text>
</g>
<!-- dofetch&#45;&gt;onready -->
<g id="edge3" class="edge">
<title>dofetch&#45;&gt;onready</title>
<path fill="none" stroke="black" d="M366.78,-18C374.57,-18 382.74,-18 390.82,-18"/>
<polygon fill="black" stroke="black" points="390.62,-21.5 400.62,-18 390.62,-14.5 390.62,-21.5"/>
</g>
<!-- do12345 -->
<g id="node5" class="node">
<title>do12345</title>
<polygon fill="none" stroke="black" stroke-dasharray="5,2" points="620.34,-36 542.09,-36 542.09,0 620.34,0 620.34,-36"/>
<text text-anchor="middle" x="581.21" y="-13.32" font-family="Times,serif" font-size="14.00">do12345</text>
</g>
<!-- onready&#45;&gt;do12345 -->
<g id="edge4" class="edge">
<title>onready&#45;&gt;do12345</title>
<path fill="none" stroke="black" d="M506.5,-18C514.46,-18 522.68,-18 530.61,-18"/>
<polygon fill="black" stroke="black" points="530.44,-21.5 540.44,-18 530.44,-14.5 530.44,-21.5"/>
</g>
<!-- dopatch -->
<g id="node6" class="node">
<title>dopatch</title>
<polygon fill="none" stroke="black" stroke-dasharray="5,2" points="729.34,-36 656.34,-36 656.34,0 729.34,0 729.34,-36"/>
<text text-anchor="middle" x="692.84" y="-13.32" font-family="Times,serif" font-size="14.00">dopatch</text>
</g>
<!-- do12345&#45;&gt;dopatch -->
<g id="edge5" class="edge">
<title>do12345&#45;&gt;dopatch</title>
<path fill="none" stroke="black" d="M620.56,-18C628.27,-18 636.47,-18 644.45,-18"/>
<polygon fill="black" stroke="black" points="644.4,-21.5 654.4,-18 644.4,-14.5 644.4,-21.5"/>
</g>
<!-- prepare -->
<g id="node7" class="node">
<title>prepare</title>
<polygon fill="none" stroke="black" stroke-dasharray="5,2" points="837.59,-36 765.34,-36 765.34,0 837.59,0 837.59,-36"/>
<text text-anchor="middle" x="801.46" y="-13.32" font-family="Times,serif" font-size="14.00">prepare</text>
</g>
<!-- dopatch&#45;&gt;prepare -->
<g id="edge6" class="edge">
<title>dopatch&#45;&gt;prepare</title>
<path fill="none" stroke="black" d="M729.64,-18C737.28,-18 745.46,-18 753.45,-18"/>
<polygon fill="black" stroke="black" points="753.43,-21.5 763.43,-18 753.43,-14.5 753.43,-21.5"/>
</g>
<!-- install -->
<g id="node8" class="node">
<title>install</title>
<ellipse fill="none" stroke="black" cx="915.85" cy="-18" rx="42.26" ry="18"/>
<text text-anchor="middle" x="915.85" y="-13.32" font-family="Times,serif" font-size="14.00">install</text>
</g>
<!-- prepare&#45;&gt;install -->
<g id="edge7" class="edge">
<title>prepare&#45;&gt;install</title>
<path fill="none" stroke="black" d="M838.03,-18C845.63,-18 853.82,-18 861.92,-18"/>
<polygon fill="black" stroke="black" points="861.73,-21.5 871.73,-18 861.73,-14.5 861.73,-21.5"/>
</g>
<!-- doextra -->
<g id="node9" class="node">
<title>doextra</title>
<polygon fill="none" stroke="black" stroke-dasharray="5,2" points="1064.87,-36 994.12,-36 994.12,0 1064.87,0 1064.87,-36"/>
<text text-anchor="middle" x="1029.49" y="-13.32" font-family="Times,serif" font-size="14.00">doextra</text>
</g>
<!-- install&#45;&gt;doextra -->
<g id="edge8" class="edge">
<title>install&#45;&gt;doextra</title>
<path fill="none" stroke="black" d="M958.42,-18C966.25,-18 974.49,-18 982.44,-18"/>
<polygon fill="black" stroke="black" points="982.32,-21.5 992.32,-18 982.32,-14.5 982.32,-21.5"/>
</g>
<!-- tweak_pc_files -->
<g id="node10" class="node">
<title>tweak_pc_files</title>
<ellipse fill="none" stroke="black" cx="1183.64" cy="-18" rx="82.77" ry="18"/>
<text text-anchor="middle" x="1183.64" y="-13.32" font-family="Times,serif" font-size="14.00">tweak_pc_files</text>
</g>
<!-- doextra&#45;&gt;tweak_pc_files -->
<g id="edge9" class="edge">
<title>doextra&#45;&gt;tweak_pc_files</title>
<path fill="none" stroke="black" d="M1065.02,-18C1072.46,-18 1080.66,-18 1089.17,-18"/>
<polygon fill="black" stroke="black" points="1088.98,-21.5 1098.98,-18 1088.98,-14.5 1088.98,-21.5"/>
</g>
<!-- dotweak -->
<g id="node11" class="node">
<title>dotweak</title>
<polygon fill="none" stroke="black" stroke-dasharray="5,2" points="1378.42,-36 1302.42,-36 1302.42,0 1378.42,0 1378.42,-36"/>
<text text-anchor="middle" x="1340.42" y="-13.32" font-family="Times,serif" font-size="14.00">dotweak</text>
</g>
<!-- tweak_pc_files&#45;&gt;dotweak -->
<g id="edge10" class="edge">
<title>tweak_pc_files&#45;&gt;dotweak</title>
<path fill="none" stroke="black" d="M1266.56,-18C1274.84,-18 1283.06,-18 1290.82,-18"/>
<polygon fill="black" stroke="black" points="1290.69,-21.5 1300.69,-18 1290.69,-14.5 1290.69,-21.5"/>
</g>
<!-- docheck -->
<g id="node12" class="node">
<title>docheck</title>
<ellipse fill="none" stroke="black" cx="1466.15" cy="-18" rx="51.73" ry="18"/>
<text text-anchor="middle" x="1466.15" y="-13.32" font-family="Times,serif" font-size="14.00">docheck</text>
</g>
<!-- dotweak&#45;&gt;docheck -->
<g id="edge11" class="edge">
<title>dotweak&#45;&gt;docheck</title>
<path fill="none" stroke="black" d="M1378.88,-18C1386.42,-18 1394.54,-18 1402.67,-18"/>
<polygon fill="black" stroke="black" points="1402.6,-21.5 1412.6,-18 1402.6,-14.5 1402.6,-21.5"/>
</g>
<!-- caveats -->
<g id="node13" class="node">
<title>caveats</title>
<polygon fill="none" stroke="black" stroke-dasharray="5,2" points="1623.89,-36 1553.89,-36 1553.89,0 1623.89,0 1623.89,-36"/>
<text text-anchor="middle" x="1588.89" y="-13.32" font-family="Times,serif" font-size="14.00">caveats</text>
</g>
<!-- docheck&#45;&gt;caveats -->
<g id="edge12" class="edge">
<title>docheck&#45;&gt;caveats</title>
<path fill="none" stroke="black" d="M1518.35,-18C1526.21,-18 1534.27,-18 1542,-18"/>
<polygon fill="black" stroke="black" points="1541.89,-21.5 1551.89,-18 1541.89,-14.5 1541.89,-21.5"/>
</g>
</g>
</svg>
