<?xml version="1.0" encoding="UTF-8" standalone="no"?>
<!DOCTYPE svg PUBLIC "-//W3C//DTD SVG 1.1//EN"
 "http://www.w3.org/Graphics/SVG/1.1/DTD/svg11.dtd">
<!-- Generated by graphviz version 11.0.0 (0)
 -->
<!-- Pages: 1 -->
<svg width="1064pt" height="44pt"
 viewBox="0.00 0.00 1063.80 44.00" xmlns="http://www.w3.org/2000/svg" xmlns:xlink="http://www.w3.org/1999/xlink">
<g id="graph0" class="graph" transform="scale(1 1) rotate(0) translate(4 40)">
<polygon fill="white" stroke="none" points="-4,4 -4,-40 1059.8,-40 1059.8,4 -4,4"/>
<!-- onstart -->
<g id="node1" class="node">
<title>onstart</title>
<ellipse fill="green" stroke="black" cx="36" cy="-18" rx="36" ry="18"/>
<text text-anchor="middle" x="36" y="-12.95" font-family="Times,serif" font-size="14.00">onstart</text>
</g>
<!-- dofetch -->
<g id="node2" class="node">
<title>dofetch</title>
<ellipse fill="none" stroke="black" cx="146.55" cy="-18" rx="38.56" ry="18"/>
<text text-anchor="middle" x="146.55" y="-12.95" font-family="Times,serif" font-size="14.00">dofetch</text>
</g>
<!-- onstart&#45;&gt;dofetch -->
<g id="edge1" class="edge">
<title>onstart&#45;&gt;dofetch</title>
<path fill="none" stroke="black" d="M72.24,-18C79.98,-18 88.32,-18 96.49,-18"/>
<polygon fill="black" stroke="black" points="96.35,-21.5 106.35,-18 96.35,-14.5 96.35,-21.5"/>
</g>
<!-- onready -->
<g id="node3" class="node">
<title>onready</title>
<ellipse fill="green" stroke="black" cx="261.71" cy="-18" rx="40.6" ry="18"/>
<text text-anchor="middle" x="261.71" y="-12.95" font-family="Times,serif" font-size="14.00">onready</text>
</g>
<!-- dofetch&#45;&gt;onready -->
<g id="edge2" class="edge">
<title>dofetch&#45;&gt;onready</title>
<path fill="none" stroke="black" d="M185.55,-18C193.14,-18 201.23,-18 209.19,-18"/>
<polygon fill="black" stroke="black" points="209.17,-21.5 219.17,-18 209.17,-14.5 209.17,-21.5"/>
</g>
<!-- do12345 -->
<g id="node4" class="node">
<title>do12345</title>
<polygon fill="none" stroke="black" stroke-dasharray="5,2" points="401.56,-36 338.31,-36 338.31,0 401.56,0 401.56,-36"/>
<text text-anchor="middle" x="369.94" y="-12.95" font-family="Times,serif" font-size="14.00">do12345</text>
</g>
<!-- onready&#45;&gt;do12345 -->
<g id="edge3" class="edge">
<title>onready&#45;&gt;do12345</title>
<path fill="none" stroke="black" d="M302.57,-18C310.4,-18 318.64,-18 326.55,-18"/>
<polygon fill="black" stroke="black" points="326.31,-21.5 336.31,-18 326.31,-14.5 326.31,-21.5"/>
</g>
<!-- dopatch -->
<g id="node5" class="node">
<title>dopatch</title>
<ellipse fill="none" stroke="black" cx="477.66" cy="-18" rx="40.09" ry="18"/>
<text text-anchor="middle" x="477.66" y="-12.95" font-family="Times,serif" font-size="14.00">dopatch</text>
</g>
<!-- do12345&#45;&gt;dopatch -->
<g id="edge4" class="edge">
<title>do12345&#45;&gt;dopatch</title>
<path fill="none" stroke="black" d="M401.8,-18C409.34,-18 417.61,-18 425.81,-18"/>
<polygon fill="black" stroke="black" points="425.76,-21.5 435.76,-18 425.76,-14.5 425.76,-21.5"/>
</g>
<!-- prepare -->
<g id="node6" class="node">
<title>prepare</title>
<ellipse fill="none" stroke="black" cx="592.3" cy="-18" rx="38.56" ry="18"/>
<text text-anchor="middle" x="592.3" y="-12.95" font-family="Times,serif" font-size="14.00">prepare</text>
</g>
<!-- dopatch&#45;&gt;prepare -->
<g id="edge5" class="edge">
<title>dopatch&#45;&gt;prepare</title>
<path fill="none" stroke="black" d="M518.05,-18C525.73,-18 533.86,-18 541.81,-18"/>
<polygon fill="black" stroke="black" points="541.74,-21.5 551.74,-18 541.74,-14.5 541.74,-21.5"/>
</g>
<!-- install -->
<g id="node7" class="node">
<title>install</title>
<ellipse fill="none" stroke="black" cx="700.3" cy="-18" rx="33.44" ry="18"/>
<text text-anchor="middle" x="700.3" y="-12.95" font-family="Times,serif" font-size="14.00">install</text>
</g>
<!-- prepare&#45;&gt;install -->
<g id="edge6" class="edge">
<title>prepare&#45;&gt;install</title>
<path fill="none" stroke="black" d="M631.27,-18C639.01,-18 647.22,-18 655.16,-18"/>
<polygon fill="black" stroke="black" points="654.99,-21.5 664.99,-18 654.99,-14.5 654.99,-21.5"/>
</g>
<!-- dotweak -->
<g id="node8" class="node">
<title>dotweak</title>
<ellipse fill="none" stroke="black" cx="811.87" cy="-18" rx="42.14" ry="18"/>
<text text-anchor="middle" x="811.87" y="-12.95" font-family="Times,serif" font-size="14.00">dotweak</text>
</g>
<!-- install&#45;&gt;dotweak -->
<g id="edge7" class="edge">
<title>install&#45;&gt;dotweak</title>
<path fill="none" stroke="black" d="M734.17,-18C741.72,-18 749.92,-18 758.07,-18"/>
<polygon fill="black" stroke="black" points="757.95,-21.5 767.95,-18 757.95,-14.5 757.95,-21.5"/>
</g>
<!-- onfinal -->
<g id="node9" class="node">
<title>onfinal</title>
<ellipse fill="green" stroke="black" cx="927.03" cy="-18" rx="37.02" ry="18"/>
<text text-anchor="middle" x="927.03" y="-12.95" font-family="Times,serif" font-size="14.00">onfinal</text>
</g>
<!-- dotweak&#45;&gt;onfinal -->
<g id="edge8" class="edge">
<title>dotweak&#45;&gt;onfinal</title>
<path fill="none" stroke="black" d="M854.37,-18C862.17,-18 870.38,-18 878.35,-18"/>
<polygon fill="black" stroke="black" points="878.26,-21.5 888.26,-18 878.26,-14.5 878.26,-21.5"/>
</g>
<!-- caveats -->
<g id="node10" class="node">
<title>caveats</title>
<polygon fill="none" stroke="black" stroke-dasharray="5,2" points="1055.8,-36 1000.05,-36 1000.05,0 1055.8,0 1055.8,-36"/>
<text text-anchor="middle" x="1027.93" y="-12.95" font-family="Times,serif" font-size="14.00">caveats</text>
</g>
<!-- onfinal&#45;&gt;caveats -->
<g id="edge9" class="edge">
<title>onfinal&#45;&gt;caveats</title>
<path fill="none" stroke="black" d="M964.3,-18C972.15,-18 980.48,-18 988.42,-18"/>
<polygon fill="black" stroke="black" points="988.14,-21.5 998.14,-18 988.14,-14.5 988.14,-21.5"/>
</g>
</g>
</svg>
