<?xml version="1.0" encoding="UTF-8" standalone="no"?>
<!DOCTYPE svg PUBLIC "-//W3C//DTD SVG 1.1//EN"
 "http://www.w3.org/Graphics/SVG/1.1/DTD/svg11.dtd">
<!-- Generated by graphviz version 11.0.0 (0)
 -->
<!-- Pages: 1 -->
<svg width="934pt" height="44pt"
 viewBox="0.00 0.00 934.02 44.00" xmlns="http://www.w3.org/2000/svg" xmlns:xlink="http://www.w3.org/1999/xlink">
<g id="graph0" class="graph" transform="scale(1 1) rotate(0) translate(4 40)">
<polygon fill="white" stroke="none" points="-4,4 -4,-40 930.02,-40 930.02,4 -4,4"/>
<!-- start -->
<g id="node1" class="node">
<title>start</title>
<ellipse fill="green" stroke="black" cx="27" cy="-18" rx="27" ry="18"/>
<text text-anchor="middle" x="27" y="-12.95" font-family="Times,serif" font-size="14.00">start</text>
</g>
<!-- dofetch -->
<g id="node2" class="node">
<title>dofetch</title>
<ellipse fill="none" stroke="black" cx="128.56" cy="-18" rx="38.56" ry="18"/>
<text text-anchor="middle" x="128.56" y="-12.95" font-family="Times,serif" font-size="14.00">dofetch</text>
</g>
<!-- start&#45;&gt;dofetch -->
<g id="edge1" class="edge">
<title>start&#45;&gt;dofetch</title>
<path fill="none" stroke="black" d="M54.42,-18C61.86,-18 70.21,-18 78.53,-18"/>
<polygon fill="black" stroke="black" points="78.26,-21.5 88.26,-18 78.26,-14.5 78.26,-21.5"/>
</g>
<!-- onready -->
<g id="node3" class="node">
<title>onready</title>
<ellipse fill="none" stroke="black" cx="243.72" cy="-18" rx="40.6" ry="18"/>
<text text-anchor="middle" x="243.72" y="-12.95" font-family="Times,serif" font-size="14.00">onready</text>
</g>
<!-- dofetch&#45;&gt;onready -->
<g id="edge2" class="edge">
<title>dofetch&#45;&gt;onready</title>
<path fill="none" stroke="black" d="M167.55,-18C175.14,-18 183.24,-18 191.2,-18"/>
<polygon fill="black" stroke="black" points="191.18,-21.5 201.18,-18 191.18,-14.5 191.18,-21.5"/>
</g>
<!-- do12345 -->
<g id="node4" class="node">
<title>do12345</title>
<polygon fill="none" stroke="black" stroke-dasharray="5,2" points="383.57,-36 320.32,-36 320.32,0 383.57,0 383.57,-36"/>
<text text-anchor="middle" x="351.94" y="-12.95" font-family="Times,serif" font-size="14.00">do12345</text>
</g>
<!-- onready&#45;&gt;do12345 -->
<g id="edge3" class="edge">
<title>onready&#45;&gt;do12345</title>
<path fill="none" stroke="black" d="M284.57,-18C292.41,-18 300.65,-18 308.56,-18"/>
<polygon fill="black" stroke="black" points="308.31,-21.5 318.31,-18 308.31,-14.5 308.31,-21.5"/>
</g>
<!-- dopatch -->
<g id="node5" class="node">
<title>dopatch</title>
<ellipse fill="none" stroke="black" cx="459.66" cy="-18" rx="40.09" ry="18"/>
<text text-anchor="middle" x="459.66" y="-12.95" font-family="Times,serif" font-size="14.00">dopatch</text>
</g>
<!-- do12345&#45;&gt;dopatch -->
<g id="edge4" class="edge">
<title>do12345&#45;&gt;dopatch</title>
<path fill="none" stroke="black" d="M383.81,-18C391.35,-18 399.61,-18 407.81,-18"/>
<polygon fill="black" stroke="black" points="407.77,-21.5 417.77,-18 407.77,-14.5 407.77,-21.5"/>
</g>
<!-- prepare -->
<g id="node6" class="node">
<title>prepare</title>
<ellipse fill="none" stroke="black" cx="574.31" cy="-18" rx="38.56" ry="18"/>
<text text-anchor="middle" x="574.31" y="-12.95" font-family="Times,serif" font-size="14.00">prepare</text>
</g>
<!-- dopatch&#45;&gt;prepare -->
<g id="edge5" class="edge">
<title>dopatch&#45;&gt;prepare</title>
<path fill="none" stroke="black" d="M500.06,-18C507.73,-18 515.87,-18 523.82,-18"/>
<polygon fill="black" stroke="black" points="523.75,-21.5 533.75,-18 523.75,-14.5 523.75,-21.5"/>
</g>
<!-- install -->
<g id="node7" class="node">
<title>install</title>
<ellipse fill="none" stroke="black" cx="682.3" cy="-18" rx="33.44" ry="18"/>
<text text-anchor="middle" x="682.3" y="-12.95" font-family="Times,serif" font-size="14.00">install</text>
</g>
<!-- prepare&#45;&gt;install -->
<g id="edge6" class="edge">
<title>prepare&#45;&gt;install</title>
<path fill="none" stroke="black" d="M613.28,-18C621.02,-18 629.23,-18 637.16,-18"/>
<polygon fill="black" stroke="black" points="637,-21.5 647,-18 637,-14.5 637,-21.5"/>
</g>
<!-- dotweak -->
<g id="node8" class="node">
<title>dotweak</title>
<ellipse fill="none" stroke="black" cx="793.88" cy="-18" rx="42.14" ry="18"/>
<text text-anchor="middle" x="793.88" y="-12.95" font-family="Times,serif" font-size="14.00">dotweak</text>
</g>
<!-- install&#45;&gt;dotweak -->
<g id="edge7" class="edge">
<title>install&#45;&gt;dotweak</title>
<path fill="none" stroke="black" d="M716.18,-18C723.72,-18 731.93,-18 740.07,-18"/>
<polygon fill="black" stroke="black" points="739.96,-21.5 749.96,-18 739.96,-14.5 739.96,-21.5"/>
</g>
<!-- end -->
<g id="node9" class="node">
<title>end</title>
<ellipse fill="green" stroke="black" cx="899.02" cy="-18" rx="27" ry="18"/>
<text text-anchor="middle" x="899.02" y="-12.95" font-family="Times,serif" font-size="14.00">end</text>
</g>
<!-- dotweak&#45;&gt;end -->
<g id="edge8" class="edge">
<title>dotweak&#45;&gt;end</title>
<path fill="none" stroke="black" d="M836.24,-18C844.2,-18 852.5,-18 860.34,-18"/>
<polygon fill="black" stroke="black" points="860.27,-21.5 870.27,-18 860.27,-14.5 860.27,-21.5"/>
</g>
</g>
</svg>
