<?xml version="1.0" encoding="UTF-8" standalone="no"?>
<!DOCTYPE svg PUBLIC "-//W3C//DTD SVG 1.1//EN"
 "http://www.w3.org/Graphics/SVG/1.1/DTD/svg11.dtd">
<!-- Generated by graphviz version 10.0.1 (20240210.2158)
 -->
<!-- Pages: 1 -->
<svg width="1233pt" height="44pt"
 viewBox="0.00 0.00 1233.09 44.00" xmlns="http://www.w3.org/2000/svg" xmlns:xlink="http://www.w3.org/1999/xlink">
<g id="graph0" class="graph" transform="scale(1 1) rotate(0) translate(4 40)">
<polygon fill="white" stroke="none" points="-4,4 -4,-40 1229.09,-40 1229.09,4 -4,4"/>
<!-- start -->
<g id="node1" class="node">
<title>start</title>
<ellipse fill="green" stroke="black" cx="35.42" cy="-18" rx="35.42" ry="18"/>
<text text-anchor="middle" x="35.42" y="-13.32" font-family="Times,serif" font-size="14.00">start</text>
</g>
<!-- dofetch -->
<g id="node2" class="node">
<title>dofetch</title>
<ellipse fill="none" stroke="black" cx="155.43" cy="-18" rx="48.58" ry="18"/>
<text text-anchor="middle" x="155.43" y="-13.32" font-family="Times,serif" font-size="14.00">dofetch</text>
</g>
<!-- start&#45;&gt;dofetch -->
<g id="edge1" class="edge">
<title>start&#45;&gt;dofetch</title>
<path fill="none" stroke="black" d="M71.19,-18C78.68,-18 86.79,-18 94.92,-18"/>
<polygon fill="black" stroke="black" points="94.84,-21.5 104.84,-18 94.84,-14.5 94.84,-21.5"/>
</g>
<!-- onready -->
<g id="node3" class="node">
<title>onready</title>
<ellipse fill="none" stroke="black" cx="291.74" cy="-18" rx="51.73" ry="18"/>
<text text-anchor="middle" x="291.74" y="-13.32" font-family="Times,serif" font-size="14.00">onready</text>
</g>
<!-- dofetch&#45;&gt;onready -->
<g id="edge2" class="edge">
<title>dofetch&#45;&gt;onready</title>
<path fill="none" stroke="black" d="M204.16,-18C211.95,-18 220.12,-18 228.2,-18"/>
<polygon fill="black" stroke="black" points="228,-21.5 238,-18 228,-14.5 228,-21.5"/>
</g>
<!-- do12345 -->
<g id="node4" class="node">
<title>do12345</title>
<polygon fill="none" stroke="black" stroke-dasharray="5,2" points="457.72,-36 379.47,-36 379.47,0 457.72,0 457.72,-36"/>
<text text-anchor="middle" x="418.6" y="-13.32" font-family="Times,serif" font-size="14.00">do12345</text>
</g>
<!-- onready&#45;&gt;do12345 -->
<g id="edge3" class="edge">
<title>onready&#45;&gt;do12345</title>
<path fill="none" stroke="black" d="M343.88,-18C351.85,-18 360.06,-18 367.99,-18"/>
<polygon fill="black" stroke="black" points="367.83,-21.5 377.83,-18 367.83,-14.5 367.83,-21.5"/>
</g>
<!-- dopatch -->
<g id="node5" class="node">
<title>dopatch</title>
<ellipse fill="none" stroke="black" cx="544.93" cy="-18" rx="51.21" ry="18"/>
<text text-anchor="middle" x="544.93" y="-13.32" font-family="Times,serif" font-size="14.00">dopatch</text>
</g>
<!-- do12345&#45;&gt;dopatch -->
<g id="edge4" class="edge">
<title>do12345&#45;&gt;dopatch</title>
<path fill="none" stroke="black" d="M457.92,-18C465.67,-18 474,-18 482.32,-18"/>
<polygon fill="black" stroke="black" points="482.09,-21.5 492.09,-18 482.09,-14.5 482.09,-21.5"/>
</g>
<!-- prepare -->
<g id="node6" class="node">
<title>prepare</title>
<ellipse fill="none" stroke="black" cx="682.82" cy="-18" rx="50.68" ry="18"/>
<text text-anchor="middle" x="682.82" y="-13.32" font-family="Times,serif" font-size="14.00">prepare</text>
</g>
<!-- dopatch&#45;&gt;prepare -->
<g id="edge5" class="edge">
<title>dopatch&#45;&gt;prepare</title>
<path fill="none" stroke="black" d="M596.53,-18C604.43,-18 612.66,-18 620.76,-18"/>
<polygon fill="black" stroke="black" points="620.57,-21.5 630.57,-18 620.57,-14.5 620.57,-21.5"/>
</g>
<!-- dobuild -->
<g id="node7" class="node">
<title>dobuild</title>
<ellipse fill="none" stroke="black" cx="818.08" cy="-18" rx="48.58" ry="18"/>
<text text-anchor="middle" x="818.08" y="-13.32" font-family="Times,serif" font-size="14.00">dobuild</text>
</g>
<!-- prepare&#45;&gt;dobuild -->
<g id="edge6" class="edge">
<title>prepare&#45;&gt;dobuild</title>
<path fill="none" stroke="black" d="M733.82,-18C741.56,-18 749.62,-18 757.55,-18"/>
<polygon fill="black" stroke="black" points="757.5,-21.5 767.5,-18 757.5,-14.5 757.5,-21.5"/>
</g>
<!-- install -->
<g id="node8" class="node">
<title>install</title>
<ellipse fill="none" stroke="black" cx="944.92" cy="-18" rx="42.26" ry="18"/>
<text text-anchor="middle" x="944.92" y="-13.32" font-family="Times,serif" font-size="14.00">install</text>
</g>
<!-- dobuild&#45;&gt;install -->
<g id="edge7" class="edge">
<title>dobuild&#45;&gt;install</title>
<path fill="none" stroke="black" d="M866.99,-18C874.84,-18 883.02,-18 890.99,-18"/>
<polygon fill="black" stroke="black" points="890.94,-21.5 900.94,-18 890.94,-14.5 890.94,-21.5"/>
</g>
<!-- dotweak -->
<g id="node9" class="node">
<title>dotweak</title>
<ellipse fill="none" stroke="black" cx="1076.5" cy="-18" rx="53.31" ry="18"/>
<text text-anchor="middle" x="1076.5" y="-13.32" font-family="Times,serif" font-size="14.00">dotweak</text>
</g>
<!-- install&#45;&gt;dotweak -->
<g id="edge8" class="edge">
<title>install&#45;&gt;dotweak</title>
<path fill="none" stroke="black" d="M987.63,-18C995.28,-18 1003.41,-18 1011.53,-18"/>
<polygon fill="black" stroke="black" points="1011.43,-21.5 1021.43,-18 1011.43,-14.5 1011.43,-21.5"/>
</g>
<!-- end -->
<g id="node10" class="node">
<title>end</title>
<ellipse fill="green" stroke="black" cx="1195.45" cy="-18" rx="29.64" ry="18"/>
<text text-anchor="middle" x="1195.45" y="-13.32" font-family="Times,serif" font-size="14.00">end</text>
</g>
<!-- dotweak&#45;&gt;end -->
<g id="edge9" class="edge">
<title>dotweak&#45;&gt;end</title>
<path fill="none" stroke="black" d="M1130.16,-18C1138.21,-18 1146.41,-18 1154.14,-18"/>
<polygon fill="black" stroke="black" points="1153.92,-21.5 1163.92,-18 1153.92,-14.5 1153.92,-21.5"/>
</g>
</g>
</svg>
