<?xml version="1.0" encoding="UTF-8" standalone="no"?>
<!DOCTYPE svg PUBLIC "-//W3C//DTD SVG 1.1//EN"
 "http://www.w3.org/Graphics/SVG/1.1/DTD/svg11.dtd">
<!-- Generated by graphviz version 11.0.0 (0)
 -->
<!-- Pages: 1 -->
<svg width="1143pt" height="44pt"
 viewBox="0.00 0.00 1143.06 44.00" xmlns="http://www.w3.org/2000/svg" xmlns:xlink="http://www.w3.org/1999/xlink">
<g id="graph0" class="graph" transform="scale(1 1) rotate(0) translate(4 40)">
<polygon fill="white" stroke="none" points="-4,4 -4,-40 1139.06,-40 1139.06,4 -4,4"/>
<!-- onstart -->
<g id="node1" class="node">
<title>onstart</title>
<ellipse fill="green" stroke="black" cx="36" cy="-18" rx="36" ry="18"/>
<text text-anchor="middle" x="36" y="-12.95" font-family="Times,serif" font-size="14.00">onstart</text>
</g>
<!-- dosetup -->
<g id="node2" class="node">
<title>dosetup</title>
<ellipse fill="none" stroke="black" cx="147.57" cy="-18" rx="39.58" ry="18"/>
<text text-anchor="middle" x="147.57" y="-12.95" font-family="Times,serif" font-size="14.00">dosetup</text>
</g>
<!-- onstart&#45;&gt;dosetup -->
<g id="edge1" class="edge">
<title>onstart&#45;&gt;dosetup</title>
<path fill="none" stroke="black" d="M72.27,-18C79.93,-18 88.16,-18 96.27,-18"/>
<polygon fill="black" stroke="black" points="96.06,-21.5 106.06,-18 96.06,-14.5 96.06,-21.5"/>
</g>
<!-- onready -->
<g id="node3" class="node">
<title>onready</title>
<ellipse fill="green" stroke="black" cx="263.76" cy="-18" rx="40.6" ry="18"/>
<text text-anchor="middle" x="263.76" y="-12.95" font-family="Times,serif" font-size="14.00">onready</text>
</g>
<!-- dosetup&#45;&gt;onready -->
<g id="edge2" class="edge">
<title>dosetup&#45;&gt;onready</title>
<path fill="none" stroke="black" d="M187.55,-18C195.19,-18 203.31,-18 211.29,-18"/>
<polygon fill="black" stroke="black" points="211.28,-21.5 221.28,-18 211.28,-14.5 211.28,-21.5"/>
</g>
<!-- do12345 -->
<g id="node4" class="node">
<title>do12345</title>
<polygon fill="none" stroke="black" stroke-dasharray="5,2" points="403.61,-36 340.36,-36 340.36,0 403.61,0 403.61,-36"/>
<text text-anchor="middle" x="371.99" y="-12.95" font-family="Times,serif" font-size="14.00">do12345</text>
</g>
<!-- onready&#45;&gt;do12345 -->
<g id="edge3" class="edge">
<title>onready&#45;&gt;do12345</title>
<path fill="none" stroke="black" d="M304.62,-18C312.45,-18 320.69,-18 328.6,-18"/>
<polygon fill="black" stroke="black" points="328.35,-21.5 338.35,-18 328.35,-14.5 328.35,-21.5"/>
</g>
<!-- dopatch -->
<g id="node5" class="node">
<title>dopatch</title>
<polygon fill="none" stroke="black" stroke-dasharray="5,2" points="498.36,-36 439.61,-36 439.61,0 498.36,0 498.36,-36"/>
<text text-anchor="middle" x="468.99" y="-12.95" font-family="Times,serif" font-size="14.00">dopatch</text>
</g>
<!-- do12345&#45;&gt;dopatch -->
<g id="edge4" class="edge">
<title>do12345&#45;&gt;dopatch</title>
<path fill="none" stroke="black" d="M404.09,-18C411.73,-18 420.01,-18 428,-18"/>
<polygon fill="black" stroke="black" points="427.87,-21.5 437.87,-18 427.87,-14.5 427.87,-21.5"/>
</g>
<!-- prepare -->
<g id="node6" class="node">
<title>prepare</title>
<polygon fill="none" stroke="black" stroke-dasharray="5,2" points="590.86,-36 534.36,-36 534.36,0 590.86,0 590.86,-36"/>
<text text-anchor="middle" x="562.61" y="-12.95" font-family="Times,serif" font-size="14.00">prepare</text>
</g>
<!-- dopatch&#45;&gt;prepare -->
<g id="edge5" class="edge">
<title>dopatch&#45;&gt;prepare</title>
<path fill="none" stroke="black" d="M498.73,-18C506.27,-18 514.54,-18 522.53,-18"/>
<polygon fill="black" stroke="black" points="522.4,-21.5 532.4,-18 522.4,-14.5 522.4,-21.5"/>
</g>
<!-- install -->
<g id="node7" class="node">
<title>install</title>
<ellipse fill="none" stroke="black" cx="660.3" cy="-18" rx="33.44" ry="18"/>
<text text-anchor="middle" x="660.3" y="-12.95" font-family="Times,serif" font-size="14.00">install</text>
</g>
<!-- prepare&#45;&gt;install -->
<g id="edge6" class="edge">
<title>prepare&#45;&gt;install</title>
<path fill="none" stroke="black" d="M591.29,-18C598.79,-18 607.1,-18 615.27,-18"/>
<polygon fill="black" stroke="black" points="615.1,-21.5 625.1,-18 615.1,-14.5 615.1,-21.5"/>
</g>
<!-- dotweak -->
<g id="node8" class="node">
<title>dotweak</title>
<ellipse fill="none" stroke="black" cx="771.88" cy="-18" rx="42.14" ry="18"/>
<text text-anchor="middle" x="771.88" y="-12.95" font-family="Times,serif" font-size="14.00">dotweak</text>
</g>
<!-- install&#45;&gt;dotweak -->
<g id="edge7" class="edge">
<title>install&#45;&gt;dotweak</title>
<path fill="none" stroke="black" d="M694.18,-18C701.72,-18 709.92,-18 718.07,-18"/>
<polygon fill="black" stroke="black" points="717.96,-21.5 727.96,-18 717.96,-14.5 717.96,-21.5"/>
</g>
<!-- docheck -->
<g id="node9" class="node">
<title>docheck</title>
<ellipse fill="none" stroke="black" cx="891.64" cy="-18" rx="41.63" ry="18"/>
<text text-anchor="middle" x="891.64" y="-12.95" font-family="Times,serif" font-size="14.00">docheck</text>
</g>
<!-- dotweak&#45;&gt;docheck -->
<g id="edge8" class="edge">
<title>dotweak&#45;&gt;docheck</title>
<path fill="none" stroke="black" d="M814.4,-18C822.23,-18 830.51,-18 838.62,-18"/>
<polygon fill="black" stroke="black" points="838.38,-21.5 848.38,-18 838.38,-14.5 838.38,-21.5"/>
</g>
<!-- onfinal -->
<g id="node10" class="node">
<title>onfinal</title>
<ellipse fill="green" stroke="black" cx="1006.29" cy="-18" rx="37.02" ry="18"/>
<text text-anchor="middle" x="1006.29" y="-12.95" font-family="Times,serif" font-size="14.00">onfinal</text>
</g>
<!-- docheck&#45;&gt;onfinal -->
<g id="edge9" class="edge">
<title>docheck&#45;&gt;onfinal</title>
<path fill="none" stroke="black" d="M933.63,-18C941.41,-18 949.61,-18 957.57,-18"/>
<polygon fill="black" stroke="black" points="957.48,-21.5 967.48,-18 957.48,-14.5 957.48,-21.5"/>
</g>
<!-- caveats -->
<g id="node11" class="node">
<title>caveats</title>
<polygon fill="none" stroke="black" stroke-dasharray="5,2" points="1135.06,-36 1079.31,-36 1079.31,0 1135.06,0 1135.06,-36"/>
<text text-anchor="middle" x="1107.19" y="-12.95" font-family="Times,serif" font-size="14.00">caveats</text>
</g>
<!-- onfinal&#45;&gt;caveats -->
<g id="edge10" class="edge">
<title>onfinal&#45;&gt;caveats</title>
<path fill="none" stroke="black" d="M1043.55,-18C1051.41,-18 1059.74,-18 1067.67,-18"/>
<polygon fill="black" stroke="black" points="1067.4,-21.5 1077.4,-18 1067.4,-14.5 1067.4,-21.5"/>
</g>
</g>
</svg>
